<?xml version="1.0" encoding="utf-8"?>
<!-- Generator: Adobe Illustrator 23.0.4, SVG Export Plug-In . SVG Version: 6.00 Build 0)  -->
<svg version="1.1" id="Layer_1" xmlns:svgjs="http://svgjs.com/svgjs"
	 xmlns="http://www.w3.org/2000/svg" xmlns:xlink="http://www.w3.org/1999/xlink" x="0px" y="0px" viewBox="0 0 640 720"
	 style="enable-background:new 0 0 640 720;" xml:space="preserve">
<style type="text/css">
	.st0{fill:#0B528C;}
	.st1{fill:#024F90;}
	.st2{fill:#015B93;}
	.st3{fill:#283376;}
	.st4{fill:#057DA2;}
	.st5{fill:#028DBE;}
	.st6{fill:#082F43;}
	.st7{fill:#02509C;}
</style>
<g>
	<g>
		<rect x="292.29" y="296.18" class="st0" width="20.99" height="20.99"/>
		<rect x="292.29" y="317.17" class="st1" width="20.99" height="20.99"/>
		<path class="st2" d="M323.78,338.17h-10.5v-20.99h10.5c5.8,0,10.5,4.7,10.5,10.5l0,0C334.28,333.47,329.58,338.17,323.78,338.17z"
			/>
		<rect x="292.29" y="338.17" class="st2" width="20.99" height="20.99"/>
		<rect x="313.28" y="296.18" class="st3" width="20.99" height="20.99"/>
		<rect x="313.28" y="338.17" class="st3" width="20.99" height="20.99"/>
		<path class="st2" d="M334.28,317.17L334.28,317.17l0-20.99h20.99l0,0C355.27,307.77,345.87,317.17,334.28,317.17z"/>
		<path class="st4" d="M355.27,359.16h-20.99v-20.99h0C345.87,338.17,355.27,347.57,355.27,359.16L355.27,359.16z"/>
	</g>
	<g>
		<rect x="289.98" y="443.14" class="st5" width="20.99" height="20.99"/>
		<rect x="289.98" y="464.13" class="st1" width="20.99" height="20.99"/>
		<rect x="289.98" y="485.13" class="st2" width="20.99" height="20.99"/>
		<rect x="310.97" y="464.13" class="st2" width="20.99" height="20.99"/>
		<path class="st2" d="M331.97,464.13L331.97,464.13v-20.99h20.99v0C352.96,454.73,343.56,464.13,331.97,464.13z"/>
		<path class="st4" d="M352.96,506.12h-20.99v-20.99l0,0C343.56,485.13,352.96,494.52,352.96,506.12L352.96,506.12z"/>
	</g>
	<g>
		<path class="st0" d="M232.66,390.65h-20.99v0c0-11.59,9.4-20.99,20.99-20.99h0V390.65z"/>
		<path class="st4" d="M232.66,411.65L232.66,411.65c-11.59,0-20.99-9.4-20.99-20.99l0,0h20.99V411.65z"/>
		<path class="st3" d="M232.66,432.64h-20.99l0,0c0-11.59,9.4-20.99,20.99-20.99h0V432.64z"/>
		<rect x="232.66" y="369.66" class="st1" width="20.99" height="20.99"/>
		<rect x="232.66" y="390.65" class="st2" width="20.99" height="20.99"/>
		<rect x="232.66" y="411.65" class="st1" width="20.99" height="20.99"/>
		<path class="st2" d="M253.66,390.65L253.66,390.65l0-20.99h20.99l0,0C274.65,381.25,265.25,390.65,253.66,390.65z"/>
		<path class="st3" d="M274.65,411.65h-20.99v-20.99h0C265.25,390.65,274.65,400.05,274.65,411.65L274.65,411.65z"/>
		<path class="st0" d="M253.66,432.64L253.66,432.64l0-20.99h20.99v0C274.65,423.24,265.25,432.64,253.66,432.64z"/>
	</g>
	<g>
		<path class="st3" d="M382.98,317.17h-20.99v-20.99h0C373.58,296.18,382.98,305.58,382.98,317.17L382.98,317.17z"/>
		<rect x="361.99" y="317.17" class="st1" width="20.99" height="20.99"/>
		<rect x="361.99" y="338.17" class="st2" width="20.99" height="20.99"/>
		<rect x="382.98" y="338.17" class="st4" width="20.99" height="20.99"/>
		<path class="st1" d="M424.97,359.16h-20.99v-20.99h0C415.57,338.17,424.97,347.57,424.97,359.16L424.97,359.16z"/>
	</g>
	<g>
		<path class="st5" d="M240.01,317.17h-20.99v-20.99h0C230.61,296.18,240.01,305.58,240.01,317.17L240.01,317.17z"/>
		<rect x="219.02" y="317.17" class="st2" width="20.99" height="20.99"/>
		<rect x="219.02" y="338.17" class="st1" width="20.99" height="20.99"/>
		<rect x="240.01" y="317.17" class="st1" width="20.99" height="20.99"/>
		<path class="st4" d="M282,317.17h-20.99v0c0-11.59,9.4-20.99,20.99-20.99h0V317.17z"/>
		<rect x="261.01" y="317.17" class="st3" width="20.99" height="20.99"/>
		<rect x="261.01" y="338.17" class="st2" width="20.99" height="20.99"/>
	</g>
	<g>
		<path class="st2" d="M314.12,234.87h-20.99v-20.99h0C304.72,213.88,314.12,223.28,314.12,234.87L314.12,234.87z"/>
		<rect x="293.13" y="234.87" class="st1" width="20.99" height="20.99"/>
		<path class="st2" d="M293.13,276.86L293.13,276.86l0-20.99h20.99v0C314.12,267.46,304.72,276.86,293.13,276.86z"/>
		<path class="st1" d="M335.12,234.87h-20.99v-20.99h0C325.72,213.88,335.12,223.28,335.12,234.87L335.12,234.87z"/>
		<path class="st2" d="M335.12,255.87L335.12,255.87c-11.59,0-20.99-9.4-20.99-20.99v0h20.99V255.87z"/>
		<path class="st3" d="M356.11,234.87h-20.99v-20.99l0,0C346.71,213.88,356.11,223.28,356.11,234.87L356.11,234.87z"/>
		<rect x="335.12" y="234.87" class="st4" width="20.99" height="20.99"/>
		<path class="st0" d="M335.12,276.86L335.12,276.86v-20.99h20.99v0C356.11,267.46,346.71,276.86,335.12,276.86z"/>
	</g>
	<g>
		<path class="st4" d="M386.76,234.87h-20.99v-20.99h0C377.36,213.88,386.76,223.28,386.76,234.87L386.76,234.87z"/>
		<path class="st2" d="M386.76,255.87L386.76,255.87c-11.59,0-20.99-9.4-20.99-20.99v0h20.99V255.87z"/>
		<rect x="386.76" y="234.87" class="st6" width="20.99" height="20.99"/>
		<path class="st3" d="M386.76,276.86L386.76,276.86v-20.99h20.99v0C407.76,267.46,398.36,276.86,386.76,276.86z"/>
		<path class="st2" d="M428.75,234.87h-20.99v0c0-11.59,9.4-20.99,20.99-20.99h0V234.87z"/>
		<path class="st7" d="M407.76,255.87L407.76,255.87v-20.99h20.99v0C428.75,246.47,419.35,255.87,407.76,255.87z"/>
	</g>
	<g>
		<path class="st0" d="M372.07,390.65h-20.99v-20.99l0,0C362.67,369.66,372.07,379.06,372.07,390.65L372.07,390.65z"/>
		<rect x="351.07" y="390.65" class="st2" width="20.99" height="20.99"/>
		<path class="st3" d="M351.07,432.64L351.07,432.64v-20.99h20.99v0C372.07,423.24,362.67,432.64,351.07,432.64z"/>
		<path class="st1" d="M414.05,390.65h-20.99v-20.99h0C404.65,369.66,414.05,379.06,414.05,390.65L414.05,390.65z"/>
		<path class="st2" d="M372.07,390.65h20.99v-20.99h0C381.47,369.66,372.07,379.06,372.07,390.65L372.07,390.65z"/>
		<rect x="393.06" y="390.65" class="st4" width="20.99" height="20.99"/>
		<path class="st1" d="M393.06,432.64L393.06,432.64l0-20.99h20.99v0C414.05,423.24,404.65,432.64,393.06,432.64z"/>
	</g>
	<g>
		<path class="st4" d="M381.93,464.13L381.93,464.13c-11.59,0-20.99-9.4-20.99-20.99v0h20.99V464.13z"/>
		<path class="st1" d="M381.93,485.13v20.99h0c-11.59,0-20.99-9.4-20.99-20.99v0H381.93z"/>
		<rect x="381.93" y="443.14" class="st2" width="20.99" height="20.99"/>
		<rect x="381.93" y="464.13" class="st1" width="20.99" height="20.99"/>
		<rect x="381.93" y="485.13" class="st2" width="20.99" height="20.99"/>
		<path class="st1" d="M423.92,464.13L423.92,464.13l-20.99,0v-20.99h0C414.52,443.14,423.92,452.54,423.92,464.13z"/>
		<path class="st5" d="M423.92,506.12h-20.99v-20.99h0C414.52,485.13,423.92,494.52,423.92,506.12L423.92,506.12z"/>
	</g>
	<g>
		<path class="st0" d="M302.57,390.65L302.57,390.65c-11.59,0-20.99-9.4-20.99-20.99l0,0h20.99V390.65z"/>
		<path class="st3" d="M302.57,411.65v20.99l0,0c-11.59,0-20.99-9.4-20.99-20.99v0H302.57z"/>
		<rect x="302.57" y="369.66" class="st1" width="20.99" height="20.99"/>
		<rect x="302.57" y="390.65" class="st2" width="20.99" height="20.99"/>
		<rect x="302.57" y="411.65" class="st1" width="20.99" height="20.99"/>
		<path class="st4" d="M344.56,390.65L344.56,390.65l-20.99,0v-20.99h0C335.16,369.66,344.56,379.06,344.56,390.65z"/>
		<path class="st0" d="M344.56,432.64h-20.99v-20.99h0C335.16,411.65,344.56,421.05,344.56,432.64L344.56,432.64z"/>
	</g>
	<g>
		<path class="st5" d="M232.24,464.13v20.99h0c-11.59,0-20.99-9.4-20.99-20.99l0,0H232.24z"/>
		<rect x="232.24" y="464.13" class="st1" width="20.99" height="20.99"/>
		<path class="st2" d="M274.23,485.13h-20.99v-20.99h0C264.83,464.13,274.23,473.53,274.23,485.13L274.23,485.13z"/>
	</g>
</g>
</svg>
