<?xml version="1.0" encoding="utf-8"?>
<svg xmlns="http://www.w3.org/2000/svg" xmlns:xlink="http://www.w3.org/1999/xlink" version="1.1" id="Layer_1" x="0px" y="0px" viewBox="0 0 1920 1920" style="enable-background:new 0 0 1920 1920;" xml:space="preserve"><g>
	<g>
		<rect x="861.6" y="706.8" class="st0" width="80" height="80" fill="rgba(157,182,163)"></rect>
		<rect x="861.6" y="786.8" class="st0" width="80" height="80" fill="rgba(98,100,98)"></rect>
		<path class="st0" d="M981.6,866.8h-40v-80h40c22.09,0,40,17.91,40,40v0C1021.6,848.89,1003.69,866.8,981.6,866.8z" fill="rgba(157,182,163)"></path>
		<rect x="861.6" y="866.8" class="st0" width="80" height="80" fill="rgba(94,130,80)"></rect>
		<rect x="941.6" y="706.8" class="st0" width="80" height="80" fill="rgba(94,130,80)"></rect>
		<rect x="941.6" y="866.8" class="st0" width="80" height="80" fill="rgba(111,76,42)"></rect>
		<path class="st0" d="M1021.6,786.8L1021.6,786.8l0-80h80v0C1101.6,750.98,1065.78,786.8,1021.6,786.8z" fill="rgba(157,105,67)"></path>
		<path class="st0" d="M1101.6,946.8h-80v-80h0C1065.78,866.8,1101.6,902.62,1101.6,946.8L1101.6,946.8z" fill="rgba(204,82,19)"></path>
	</g>
	<g>
		<rect x="852.8" y="1266.8" class="st0" width="80" height="80" fill="rgba(204,82,19)"></rect>
		<rect x="852.8" y="1346.8" class="st0" width="80" height="80" fill="rgba(157,105,67)"></rect>
		<rect x="852.8" y="1426.8" class="st0" width="80" height="80" fill="rgba(204,82,19)"></rect>
		<rect x="932.8" y="1346.8" class="st0" width="80" height="80" fill="rgba(98,100,98)"></rect>
		<path class="st0" d="M1012.8,1346.8L1012.8,1346.8l0-80h80l0,0C1092.8,1310.98,1056.98,1346.8,1012.8,1346.8z" fill="rgba(204,82,19)"></path>
		<path class="st0" d="M1092.8,1506.8h-80v-80h0C1056.98,1426.8,1092.8,1462.62,1092.8,1506.8L1092.8,1506.8z" fill="rgba(237,232,220)"></path>
	</g>
	<g>
		<path class="st0" d="M634.4,1066.8h-80v0c0-44.18,35.82-80,80-80h0V1066.8z" fill="rgba(98,100,98)"></path>
		<path class="st0" d="M634.4,1146.8L634.4,1146.8c-44.18,0-80-35.82-80-80l0,0h80V1146.8z" fill="rgba(157,105,67)"></path>
		<path class="st0" d="M634.4,1226.8h-80v0c0-44.18,35.82-80,80-80h0V1226.8z" fill="rgba(152,160,159)"></path>
		<rect x="634.4" y="986.8" class="st0" width="80" height="80" fill="rgba(237,232,220)"></rect>
		<rect x="634.4" y="1066.8" class="st0" width="80" height="80" fill="rgba(94,130,80)"></rect>
		<rect x="634.4" y="1146.8" class="st0" width="80" height="80" fill="rgba(157,105,67)"></rect>
		<path class="st0" d="M714.4,1066.8L714.4,1066.8l0-80h80v0C794.4,1030.98,758.58,1066.8,714.4,1066.8z" fill="rgba(157,182,163)"></path>
		<path class="st0" d="M794.4,1146.8h-80v-80h0C758.58,1066.8,794.4,1102.62,794.4,1146.8L794.4,1146.8z" fill="rgba(157,182,163)"></path>
		<path class="st0" d="M714.4,1226.8L714.4,1226.8l0-80h80l0,0C794.4,1190.98,758.58,1226.8,714.4,1226.8z" fill="rgba(37,42,29)"></path>
	</g>
	<g>
		<path class="st0" d="M1207.2,786.8h-80v-80h0C1171.38,706.8,1207.2,742.62,1207.2,786.8L1207.2,786.8z" fill="rgba(235,184,61)"></path>
		<rect x="1127.2" y="786.8" class="st0" width="80" height="80" fill="rgba(204,82,19)"></rect>
		<rect x="1127.2" y="866.8" class="st0" width="80" height="80" fill="rgba(94,130,80)"></rect>
		<rect x="1207.2" y="866.8" class="st0" width="80" height="80" fill="rgba(37,42,29)"></rect>
		<path class="st0" d="M1367.2,946.8h-80v-80h0C1331.38,866.8,1367.2,902.62,1367.2,946.8L1367.2,946.8z" fill="rgba(157,182,163)"></path>
	</g>
	<g>
		<path class="st0" d="M662.4,786.8h-80v-80h0C626.58,706.8,662.4,742.62,662.4,786.8L662.4,786.8z" fill="rgba(237,232,220)"></path>
		<rect x="582.4" y="786.8" class="st0" width="80" height="80" fill="rgba(37,42,29)"></rect>
		<rect x="582.4" y="866.8" class="st0" width="80" height="80" fill="rgba(157,182,163)"></rect>
		<rect x="662.4" y="786.8" class="st0" width="80" height="80" fill="rgba(157,182,163)"></rect>
		<path class="st0" d="M822.4,786.8h-80v0c0-44.18,35.82-80,80-80h0V786.8z" fill="rgba(98,100,98)"></path>
		<rect x="742.4" y="786.8" class="st0" width="80" height="80" fill="rgba(111,76,42)"></rect>
		<rect x="742.4" y="866.8" class="st0" width="80" height="80" fill="rgba(157,182,163)"></rect>
	</g>
	<g>
		<path class="st0" d="M660.8,493.2h-80v-80h0C624.98,413.2,660.8,449.02,660.8,493.2L660.8,493.2z" fill="rgba(94,130,80)"></path>
		<rect x="580.8" y="493.2" class="st0" width="80" height="80" fill="rgba(235,184,61)"></rect>
		<path class="st0" d="M580.8,653.2L580.8,653.2l0-80h80v0C660.8,617.38,624.98,653.2,580.8,653.2z" fill="rgba(204,82,19)"></path>
		<path class="st0" d="M740.8,493.2h-80v-80h0C704.98,413.2,740.8,449.02,740.8,493.2L740.8,493.2z" fill="rgba(98,100,98)"></path>
		<path class="st0" d="M740.8,573.2L740.8,573.2c-44.18,0-80-35.82-80-80v0h80V573.2z" fill="rgba(235,184,61)"></path>
		<path class="st0" d="M820.8,493.2h-80v-80h0C784.98,413.2,820.8,449.02,820.8,493.2L820.8,493.2z" fill="rgba(157,182,163)"></path>
		<rect x="740.8" y="493.2" class="st0" width="80" height="80" fill="rgba(235,184,61)"></rect>
		<path class="st0" d="M740.8,653.2L740.8,653.2l0-80h80v0C820.8,617.38,784.98,653.2,740.8,653.2z" fill="rgba(157,182,163)"></path>
	</g>
	<g>
		<path class="st0" d="M937.6,493.2h-80v-80h0C901.78,413.2,937.6,449.02,937.6,493.2L937.6,493.2z" fill="rgba(204,82,19)"></path>
		<path class="st0" d="M937.6,573.2L937.6,573.2c-44.18,0-80-35.82-80-80v0h80V573.2z" fill="rgba(204,82,19)"></path>
		<rect x="937.6" y="493.2" class="st0" width="80" height="80" fill="rgba(204,82,19)"></rect>
		<path class="st0" d="M937.6,653.2L937.6,653.2l0-80h80v0C1017.6,617.38,981.78,653.2,937.6,653.2z" fill="rgba(237,232,220)"></path>
		<path class="st0" d="M1097.6,493.2h-80v0c0-44.18,35.82-80,80-80h0V493.2z" fill="rgba(235,184,61)"></path>
		<path class="st0" d="M1017.6,573.2L1017.6,573.2l0-80h80v0C1097.6,537.38,1061.78,573.2,1017.6,573.2z" fill="rgba(152,160,159)"></path>
	</g>
	<g>
		<path class="st0" d="M1165.6,1066.8h-80v-80h0C1129.78,986.8,1165.6,1022.62,1165.6,1066.8L1165.6,1066.8z" fill="rgba(237,232,220)"></path>
		<rect x="1085.6" y="1066.8" class="st0" width="80" height="80" fill="rgba(152,160,159)"></rect>
		<path class="st0" d="M1085.6,1226.8L1085.6,1226.8l0-80h80l0,0C1165.6,1190.98,1129.78,1226.8,1085.6,1226.8z" fill="rgba(235,184,61)"></path>
		<path class="st0" d="M1325.6,1066.8h-80v-80h0C1289.78,986.8,1325.6,1022.62,1325.6,1066.8L1325.6,1066.8z" fill="rgba(98,100,98)"></path>
		<path class="st0" d="M1165.6,1066.8h80v-80l0,0C1201.42,986.8,1165.6,1022.62,1165.6,1066.8L1165.6,1066.8z" fill="rgba(235,184,61)"></path>
		<rect x="1245.6" y="1066.8" class="st0" width="80" height="80" fill="rgba(111,76,42)"></rect>
		<path class="st0" d="M1245.6,1226.8L1245.6,1226.8l0-80h80l0,0C1325.6,1190.98,1289.78,1226.8,1245.6,1226.8z" fill="rgba(157,182,163)"></path>
	</g>
	<g>
		<path class="st0" d="M1203.2,1346.8L1203.2,1346.8c-44.18,0-80-35.82-80-80l0,0h80V1346.8z" fill="rgba(98,100,98)"></path>
		<path class="st0" d="M1203.2,1426.8v80l0,0c-44.18,0-80-35.82-80-80l0,0H1203.2z" fill="rgba(98,100,98)"></path>
		<rect x="1203.2" y="1266.8" class="st0" width="80" height="80" fill="rgba(204,82,19)"></rect>
		<rect x="1203.2" y="1346.8" class="st0" width="80" height="80" fill="rgba(152,160,159)"></rect>
		<rect x="1203.2" y="1426.8" class="st0" width="80" height="80" fill="rgba(237,232,220)"></rect>
		<path class="st0" d="M1363.2,1346.8L1363.2,1346.8l-80,0v-80h0C1327.38,1266.8,1363.2,1302.62,1363.2,1346.8z" fill="rgba(237,232,220)"></path>
		<path class="st0" d="M1363.2,1506.8h-80v-80h0C1327.38,1426.8,1363.2,1462.62,1363.2,1506.8L1363.2,1506.8z" fill="rgba(111,76,42)"></path>
		<path class="st0" d="M632.8,1346.8v80h0c-44.18,0-80-35.82-80-80l0,0H632.8z" fill="rgba(157,105,67)"></path>
		<rect x="632.8" y="1346.8" class="st0" width="80" height="80" fill="rgba(237,232,220)"></rect>
		<path class="st0" d="M792.8,1426.8h-80v-80h0C756.98,1346.8,792.8,1382.62,792.8,1426.8L792.8,1426.8z" fill="rgba(37,42,29)"></path>
	</g>
	<g>
		<path class="st0" d="M900.8,1066.8L900.8,1066.8c-44.18,0-80-35.82-80-80v0h80V1066.8z" fill="rgba(204,82,19)"></path>
		<path class="st0" d="M900.8,1146.8v80h0c-44.18,0-80-35.82-80-80l0,0H900.8z" fill="rgba(111,76,42)"></path>
		<rect x="900.8" y="986.8" class="st0" width="80" height="80" fill="rgba(204,82,19)"></rect>
		<rect x="900.8" y="1066.8" class="st0" width="80" height="80" fill="rgba(152,160,159)"></rect>
		<rect x="900.8" y="1146.8" class="st0" width="80" height="80" fill="rgba(204,82,19)"></rect>
		<path class="st0" d="M1060.8,1066.8L1060.8,1066.8l-80,0v-80h0C1024.98,986.8,1060.8,1022.62,1060.8,1066.8z" fill="rgba(157,105,67)"></path>
		<path class="st0" d="M1060.8,1226.8h-80v-80h0C1024.98,1146.8,1060.8,1182.62,1060.8,1226.8L1060.8,1226.8z" fill="rgba(157,182,163)"></path>
	</g>
</g>
</svg>